<svg
   xmlns:dc="http://purl.org/dc/elements/1.1/"
   xmlns:cc="http://creativecommons.org/ns#"
   xmlns:rdf="http://www.w3.org/1999/02/22-rdf-syntax-ns#"
   xmlns:svg="http://www.w3.org/2000/svg"
   xmlns="http://www.w3.org/2000/svg"
   height="30"
   width="30"
   xml:space="preserve"
   viewBox="0 0 150 150"
   y="0px"
   x="0px"
   id="Capa_1"
   version="1.1"><metadata
   id="metadata41"><rdf:RDF><cc:Work
       rdf:about=""><dc:format>image/svg+xml</dc:format><dc:type
         rdf:resource="http://purl.org/dc/dcmitype/StillImage" /><dc:title></dc:title></cc:Work></rdf:RDF></metadata><defs
   id="defs39">
	
</defs>
<path
   id="path2"
   d="M 74.969274,0.00653355 C 45.485113,-0.40463392 17.05045,18.630033 5.8817472,46.003103 -6.0873465,73.599054 0.61094597,108.05436 22.334375,128.88984 c 10.858653,10.77723 25.064546,18.09986 40.129755,20.60706 0,-19.48926 0,-38.97852 0,-58.46779 -6.029111,0 -12.058222,0 -18.087333,0 0,-7.013395 0,-14.026786 0,-21.040179 6.029111,0 12.058222,0 18.087333,0 0.425572,-11.580718 -2.042741,-24.556221 5.791209,-34.301256 7.391437,-9.562232 20.451647,-9.655962 31.375163,-8.705222 5.647158,-1.310288 6.647408,1.849517 5.919618,6.459343 0,4.28797 0,8.57594 0,12.863909 -6.059875,0.397984 -12.56119,-1.110818 -18.191889,1.639239 -4.955106,4.02176 -2.783178,11.103462 -3.268369,16.682579 0.297873,2.334622 -1.282587,6.555865 2.539594,5.350627 6.06837,0 12.136741,0 18.205114,0 -0.90189,7.013393 -1.80378,14.026785 -2.70568,21.040179 -6.013004,0 -12.026018,0 -18.039028,0 0,19.660551 0,39.321121 0,58.981671 C 114.76287,146.63472 141.704,122.26406 148.11395,91.918619 154.66479,64.204697 143.77708,33.395294 121.25997,16.067777 108.19371,5.6919012 91.626047,-0.05409666 74.969274,0.00653355 Z"
   style="fill:#340D12" />
<g
   transform="translate(0,-17.656998)"
   id="g6">
</g>
<g
   transform="translate(0,-17.656998)"
   id="g8">
</g>
<g
   transform="translate(0,-17.656998)"
   id="g10">
</g>
<g
   transform="translate(0,-17.656998)"
   id="g12">
</g>
<g
   transform="translate(0,-17.656998)"
   id="g14">
</g>
<g
   transform="translate(0,-17.656998)"
   id="g16">
</g>
<g
   transform="translate(0,-17.656998)"
   id="g18">
</g>
<g
   transform="translate(0,-17.656998)"
   id="g20">
</g>
<g
   transform="translate(0,-17.656998)"
   id="g22">
</g>
<g
   transform="translate(0,-17.656998)"
   id="g24">
</g>
<g
   transform="translate(0,-17.656998)"
   id="g26">
</g>
<g
   transform="translate(0,-17.656998)"
   id="g28">
</g>
<g
   transform="translate(0,-17.656998)"
   id="g30">
</g>
<g
   transform="translate(0,-17.656998)"
   id="g32">
</g>
<g
   transform="translate(0,-17.656998)"
   id="g34">
</g>
</svg>