 <svg
   xmlns:dc="http://purl.org/dc/elements/1.1/"
   xmlns:cc="http://creativecommons.org/ns#"
   xmlns:rdf="http://www.w3.org/1999/02/22-rdf-syntax-ns#"
   xmlns:svg="http://www.w3.org/2000/svg"
   xmlns="http://www.w3.org/2000/svg"
   height="30"
   width="30"
   xml:space="preserve"
   viewBox="0 0 150 150"
   y="0px"
   x="0px"
   id="Capa_1"
   version="1.1"><metadata
   id="metadata55"><rdf:RDF><cc:Work
       rdf:about=""><dc:format>image/svg+xml</dc:format><dc:type
         rdf:resource="http://purl.org/dc/dcmitype/StillImage" /><dc:title></dc:title></cc:Work></rdf:RDF></metadata>
   <defs id="defs53">
	</defs>
<g
   transform="matrix(0.29296875,0,0,0.29296875,0,106.05469)"
   id="g888"><path
     id="path2"
     style="fill:#340D12"
     d="m 464,-10 c 0,61.76 -50.24,112 -112,112 H 160 C 98.24,102 48,51.76 48,-10 v -192 c 0,-61.76 50.24,-112 112,-112 h 192 c 61.76,0 112,50.24 112,112 z M 352,-362 H 160 C 71.648,-362 0,-290.352 0,-202 v 192 c 0,88.352 71.648,160 160,160 h 192 c 88.352,0 160,-71.648 160,-160 v -192 c 0,-88.352 -71.648,-160 -160,-160 z" /><path
     id="path8"
     style="fill:#340D12"
     d="m 256,-26 c -44.096,0 -80,-35.904 -80,-80 0,-44.128 35.904,-80 80,-80 44.096,0 80,35.872 80,80 0,44.096 -35.904,80 -80,80 z m 0,-208 c -70.688,0 -128,57.312 -128,128 0,70.688 57.312,128 128,128 70.688,0 128,-57.312 128,-128 0,-70.688 -57.312,-128 -128,-128 z" /><circle
     cx="393.60001"
     cy="-243.60001"
     r="17.056"
     id="circle14"
     style="fill:#340D12" /></g>
<g
   transform="translate(0,-362)"
   id="g20">
</g>
<g
   transform="translate(0,-362)"
   id="g22">
</g>
<g
   transform="translate(0,-362)"
   id="g24">
</g>
<g
   transform="translate(0,-362)"
   id="g26">
</g>
<g
   transform="translate(0,-362)"
   id="g28">
</g>
<g
   transform="translate(0,-362)"
   id="g30">
</g>
<g
   transform="translate(0,-362)"
   id="g32">
</g>
<g
   transform="translate(0,-362)"
   id="g34">
</g>
<g
   transform="translate(0,-362)"
   id="g36">
</g>
<g
   transform="translate(0,-362)"
   id="g38">
</g>
<g
   transform="translate(0,-362)"
   id="g40">
</g>
<g
   transform="translate(0,-362)"
   id="g42">
</g>
<g
   transform="translate(0,-362)"
   id="g44">
</g>
<g
   transform="translate(0,-362)"
   id="g46">
</g>
<g
   transform="translate(0,-362)"
   id="g48">
</g>
</svg>