<svg
   xmlns:dc="http://purl.org/dc/elements/1.1/"
   xmlns:cc="http://creativecommons.org/ns#"
   xmlns:rdf="http://www.w3.org/1999/02/22-rdf-syntax-ns#"
   xmlns:svg="http://www.w3.org/2000/svg"
   xmlns="http://www.w3.org/2000/svg"
   height="30"
   width="30"
   xml:space="preserve"
   viewBox="0 0 30 30"
   y="0px"
   x="0px"
   id="Capa_1"
   version="1.1"><metadata
   id="metadata43"><rdf:RDF><cc:Work
       rdf:about=""><dc:format>image/svg+xml</dc:format><dc:type
         rdf:resource="http://purl.org/dc/dcmitype/StillImage" /><dc:title></dc:title></cc:Work></rdf:RDF></metadata><defs
   id="defs41">
	
</defs>
<g
   transform="scale(0.05859375)"
   style="fill:#340D12"
   id="g4">
		<path
   style="fill:#340D12"
   d="M 256,0 C 114.624,0 0,106.112 0,237.024 0,311.616 37.216,378.144 95.392,421.6 V 512 l 87.168,-47.84 c 23.264,6.432 47.904,9.92 73.44,9.92 141.376,0 256,-106.112 256,-237.024 C 512,106.144 397.376,0 256,0 Z m 25.44,319.2 -65.184,-69.536 -127.2,69.536 139.936,-148.544 66.784,69.536 125.6,-69.536 z"
   id="path2" />
	</g>
<g
   transform="translate(0,-482)"
   id="g8">
</g>
<g
   transform="translate(0,-482)"
   id="g10">
</g>
<g
   transform="translate(0,-482)"
   id="g12">
</g>
<g
   transform="translate(0,-482)"
   id="g14">
</g>
<g
   transform="translate(0,-482)"
   id="g16">
</g>
<g
   transform="translate(0,-482)"
   id="g18">
</g>
<g
   transform="translate(0,-482)"
   id="g20">
</g>
<g
   transform="translate(0,-482)"
   id="g22">
</g>
<g
   transform="translate(0,-482)"
   id="g24">
</g>
<g
   transform="translate(0,-482)"
   id="g26">
</g>
<g
   transform="translate(0,-482)"
   id="g28">
</g>
<g
   transform="translate(0,-482)"
   id="g30">
</g>
<g
   transform="translate(0,-482)"
   id="g32">
</g>
<g
   transform="translate(0,-482)"
   id="g34">
</g>
<g
   transform="translate(0,-482)"
   id="g36">
</g>
</svg>