<?xml version="1.0" encoding="UTF-8" standalone="no"?>
<svg
   version="1.1"
   id="Capa_1"
   x="0px"
   y="0px"
   width="24"
   height="24"
   viewBox="0 0 120 120"
   xml:space="preserve"
   xmlns="http://www.w3.org/2000/svg"
   xmlns:svg="http://www.w3.org/2000/svg"
   xmlns:rdf="http://www.w3.org/1999/02/22-rdf-syntax-ns#"
   xmlns:cc="http://creativecommons.org/ns#"
   xmlns:dc="http://purl.org/dc/elements/1.1/"><metadata
   id="metadata41"><rdf:RDF><cc:Work
       rdf:about=""><dc:format>image/svg+xml</dc:format><dc:type
         rdf:resource="http://purl.org/dc/dcmitype/StillImage" /></cc:Work></rdf:RDF></metadata><defs
   id="defs39">
	
</defs>

<g
   id="g6"
   transform="translate(0,319.333)"
   style="fill:#340D12">
</g>
<g
   id="g8"
   transform="translate(0,319.333)"
   style="fill:#340D12">
</g>
<g
   id="g10"
   transform="translate(0,319.333)"
   style="fill:#340D12">
</g>
<g
   id="g12"
   transform="translate(0,319.333)"
   style="fill:#340D12">
</g>
<g
   id="g14"
   transform="translate(0,319.333)"
   style="fill:#340D12">
</g>
<g
   id="g16"
   transform="translate(0,319.333)"
   style="fill:#340D12">
</g>
<g
   id="g18"
   transform="translate(0,319.333)"
   style="fill:#340D12">
</g>
<g
   id="g20"
   transform="translate(0,319.333)"
   style="fill:#340D12">
</g>
<g
   id="g22"
   transform="translate(0,319.333)"
   style="fill:#340D12">
</g>
<g
   id="g24"
   transform="translate(0,319.333)"
   style="fill:#340D12">
</g>
<g
   id="g26"
   transform="translate(0,319.333)"
   style="fill:#340D12">
</g>
<g
   id="g28"
   transform="translate(0,319.333)"
   style="fill:#340D12">
</g>
<g
   id="g30"
   transform="translate(0,319.333)"
   style="fill:#340D12">
</g>
<g
   id="g32"
   transform="translate(0,319.333)"
   style="fill:#340D12">
</g>
<g
   id="g34"
   transform="translate(0,319.333)"
   style="fill:#340D12">
</g>
<path
   id="path1336"
   style="color:#000000;fill:#340D12;-inkscape-stroke:none"
   d="M 60,7.5 C 31.058185,7.5 7.5,31.058185 7.5,60 7.5,88.941815 31.058185,112.5 60,112.5 88.941815,112.5 112.5,88.941815 112.5,60 112.5,31.058185 88.941815,7.5 60,7.5 Z m 0,8.966797 c 24.095612,0 43.5332,19.437591 43.5332,43.533203 0,24.095612 -19.437588,43.5332 -43.5332,43.5332 C 35.904388,103.5332 16.466797,84.095612 16.466797,60 16.466797,35.904388 35.904388,16.466797 60,16.466797 Z M 8.41099,0 H 111.58901 C 116.2487,0 120,3.751302 120,8.410992 V 111.58901 C 120,116.2487 116.2487,120 111.58901,120 H 8.41099 C 3.7513,120 0,116.2487 0,111.58901 V 8.410992 C 0,3.751302 3.7513,0 8.41099,0 Z m 65.125343,29.649679 c -0.615533,0.383186 -0.990563,1.385976 -1.740622,2.886094 -0.750051,1.49604 -4.357672,8.902864 -4.846836,10.27662 -0.501407,1.385968 -0.754138,2.388766 0.741902,3.391556 1.496033,0.99057 4.854993,3.876664 5.857791,4.761249 0.998719,0.87642 1.125089,1.752848 0.387264,3.257037 -0.758215,1.504197 -2.323553,6.355119 -7.406831,12.102854 -3.96226,4.471799 -8.841722,7.492418 -10.337762,8.364768 -1.491962,0.884585 -2.299085,0.08969 -3.040995,-0.656299 -0.672605,-0.672605 -1.7447,-1.504189 -2.621129,-2.258334 -0.868272,-0.754137 -1.483813,-1.00279 -2.482524,-1.504189 -0.998728,-0.493242 -1.866992,-0.244582 -2.621129,0.12637 -0.750059,0.375029 -8.087585,3.379344 -11.075594,4.63895 -2.983924,1.25145 -2.490673,2.502906 -2.490673,3.383416 0,0.876429 -0.1223,1.879224 -0.1223,2.882012 0,1.002787 0.362803,2.633353 1.858843,4.007105 1.49604,1.373745 5.103661,5.262639 12.449336,5.262639 7.35383,0 14.442695,-5.384931 15.437337,-6.139061 0.990563,-0.758218 16.558346,-10.411135 22.53436,-25.701728 5.971933,-15.298741 3.97858,-15.298741 3.725834,-18.054387 C 87.489865,37.912548 84.134996,31.773487 80.65374,30.5261 77.156179,29.270571 74.160031,29.270571 73.536333,29.649679 Z" /></svg>
