<?xml version="1.0" encoding="UTF-8" standalone="no"?>
<svg
   xmlns:dc="http://purl.org/dc/elements/1.1/"
   xmlns:cc="http://creativecommons.org/ns#"
   xmlns:rdf="http://www.w3.org/1999/02/22-rdf-syntax-ns#"
   xmlns:svg="http://www.w3.org/2000/svg"
   xmlns="http://www.w3.org/2000/svg"
   xmlns:sodipodi="http://sodipodi.sourceforge.net/DTD/sodipodi-0.dtd"
   xmlns:inkscape="http://www.inkscape.org/namespaces/inkscape"
   version="1.1"
   id="Capa_1"
   x="0px"
   y="0px"
   width="70"
   height="70"
   viewBox="0 0 350 350"
   xml:space="preserve"
   sodipodi:docname="tel.svg"
   inkscape:version="0.92.4 (5da689c313, 2019-01-14)"><sodipodi:namedview
   pagecolor="#ffffff"
   bordercolor="#666666"
   borderopacity="1"
   objecttolerance="10"
   gridtolerance="10"
   guidetolerance="10"
   inkscape:pageopacity="0"
   inkscape:pageshadow="2"
   inkscape:window-width="1440"
   inkscape:window-height="803"
   id="namedview21"
   showgrid="false"
   inkscape:zoom="7.8666667"
   inkscape:cx="28.665254"
   inkscape:cy="33.177966"
   inkscape:window-x="0"
   inkscape:window-y="27"
   inkscape:window-maximized="1"
   inkscape:current-layer="Capa_1" /><metadata
   id="metadata41"><rdf:RDF><cc:Work
       rdf:about=""><dc:format>image/svg+xml</dc:format><dc:type
         rdf:resource="http://purl.org/dc/dcmitype/StillImage" /><dc:title></dc:title></cc:Work></rdf:RDF></metadata><defs
   id="defs39">
	
</defs>
<path
   d="m 261.28478,47.830666 c -2.51677,1.566733 -4.05019,5.666934 -7.117,11.800584 -3.06682,6.116967 -17.81755,36.401777 -19.81764,42.01873 -2.05011,5.66691 -3.08348,9.76713 3.03349,13.86733 6.11695,4.0502 19.85096,15.85077 23.95116,19.46762 4.08354,3.5835 4.60024,7.16701 1.58342,13.31731 -3.10015,6.15032 -9.50048,25.98461 -30.28483,49.48578 -16.20079,18.28421 -36.15177,30.63481 -42.26874,34.20165 -6.1003,3.61686 -9.40045,0.3667 -12.43393,-2.68345 -2.75014,-2.75014 -7.13369,-6.1503 -10.7172,-9.23379 -3.55017,-3.0835 -6.06697,-4.1002 -10.1505,-6.1503 -4.08354,-2.01676 -7.6337,-1.00005 -10.71719,0.5167 -3.06681,1.5334 -33.06828,13.81734 -45.28555,18.96759 -12.200597,5.11691 -10.183828,10.23383 -10.183828,13.83401 0,3.5835 -0.500027,7.68372 -0.500027,11.7839 0,4.1002 1.483408,10.7672 7.600376,16.38415 6.116969,5.61694 20.867679,21.51772 50.902479,21.51772 30.06815,0 59.05291,-22.01775 63.11977,-25.10123 4.05019,-3.10015 67.70332,-42.56875 92.13784,-105.08849 24.41786,-62.55305 16.26751,-62.55305 15.2341,-73.82027 -1.03342,-11.30055 -14.75074,-36.401777 -28.98477,-41.50206 -14.3007,-5.133567 -26.5513,-5.133567 -29.10143,-3.583484 z"
   id="path2"
   style="fill:#340D12"
   inkscape:connector-curvature="0" />
<g
   id="g6"
   transform="translate(0,319.333)">
</g>
<g
   id="g8"
   transform="translate(0,319.333)">
</g>
<g
   id="g10"
   transform="translate(0,319.333)">
</g>
<g
   id="g12"
   transform="translate(0,319.333)">
</g>
<g
   id="g14"
   transform="translate(0,319.333)">
</g>
<g
   id="g16"
   transform="translate(0,319.333)">
</g>
<g
   id="g18"
   transform="translate(0,319.333)">
</g>
<g
   id="g20"
   transform="translate(0,319.333)">
</g>
<g
   id="g22"
   transform="translate(0,319.333)">
</g>
<g
   id="g24"
   transform="translate(0,319.333)">
</g>
<g
   id="g26"
   transform="translate(0,319.333)">
</g>
<g
   id="g28"
   transform="translate(0,319.333)">
</g>
<g
   id="g30"
   transform="translate(0,319.333)">
</g>
<g
   id="g32"
   transform="translate(0,319.333)">
</g>
<g
   id="g34"
   transform="translate(0,319.333)">
</g>
</svg>