<svg
   xmlns:dc="http://purl.org/dc/elements/1.1/"
   xmlns:cc="http://creativecommons.org/ns#"
   xmlns:rdf="http://www.w3.org/1999/02/22-rdf-syntax-ns#"
   xmlns:svg="http://www.w3.org/2000/svg"
   xmlns="http://www.w3.org/2000/svg"
   height="30"
   width="30"
   xml:space="preserve"
   viewBox="0 0 150 150"
   y="0px"
   x="0px"
   id="Capa_1"
   version="1.1"><metadata
   id="metadata41"><rdf:RDF><cc:Work
       rdf:about=""><dc:format>image/svg+xml</dc:format><dc:type
         rdf:resource="http://purl.org/dc/dcmitype/StillImage" /><dc:title></dc:title></cc:Work></rdf:RDF></metadata><defs
   id="defs39">
	
</defs>

<g
   transform="translate(0,-17.656998)"
   id="g6">
</g>
<g
   transform="translate(0,-17.656998)"
   id="g8">
</g>
<g
   transform="translate(0,-17.656998)"
   id="g10">
</g>
<g
   transform="translate(0,-17.656998)"
   id="g12">
</g>
<g
   transform="translate(0,-17.656998)"
   id="g14">
</g>
<g
   transform="translate(0,-17.656998)"
   id="g16">
</g>
<g
   transform="translate(0,-17.656998)"
   id="g18">
</g>
<g
   transform="translate(0,-17.656998)"
   id="g20">
</g>
<g
   transform="translate(0,-17.656998)"
   id="g22">
</g>
<g
   transform="translate(0,-17.656998)"
   id="g24">
</g>
<g
   transform="translate(0,-17.656998)"
   id="g26">
</g>
<g
   transform="translate(0,-17.656998)"
   id="g28">
</g>
<g
   transform="translate(0,-17.656998)"
   id="g30">
</g>
<g
   transform="translate(0,-17.656998)"
   id="g32">
</g>
<g
   transform="translate(0,-17.656998)"
   id="g34">
</g>
<g
   id="text1575"
   style="font-style:normal;font-weight:normal;font-size:172.2026062px;line-height:1.25;font-family:sans-serif;letter-spacing:0px;word-spacing:0px;fill:#e52f3c;fill-opacity:1;stroke:none;stroke-width:4.30506563;stroke-opacity:1"
   transform="scale(1.0078786,0.99218299)"
   aria-label="@"><path
     id="path829"
     style="fill:#340D12;stroke:none;stroke-width:4.30506563;stroke-opacity:1"
     d="m 52.720232,76.095397 q 0,12.023912 5.969914,18.918743 5.969915,6.81075 16.396244,6.81075 10.342247,0 16.228078,-6.894833 5.969915,-6.894831 5.969915,-18.83466 0,-11.771663 -6.053998,-18.666494 -6.053998,-6.978914 -16.312161,-6.978914 -10.17408,0 -16.228078,6.894831 -5.969914,6.894831 -5.969914,18.750577 z m 45.8254,25.140903 q -5.044998,6.47442 -11.603496,9.5855 -6.474414,3.027 -15.134994,3.027 -14.462329,0 -23.543325,-10.42633 -8.996914,-10.510413 -8.996914,-27.327073 0,-16.816661 9.080997,-27.327074 9.080997,-10.510413 23.459242,-10.510413 8.66058,0 15.219078,3.195165 6.558497,3.111083 11.519412,9.501414 V 39.939576 h 12.023908 v 61.885314 q 12.27617,-1.849835 19.171,-11.183082 6.97891,-9.41733 6.97891,-24.300075 0,-8.996913 -2.69066,-16.900744 -2.60659,-7.90383 -7.98792,-14.630495 -8.74466,-11.014912 -21.35716,-16.81666 -12.528409,-5.885832 -27.32707,-5.885832 -10.342247,0 -19.84366,2.774749 -9.501413,2.690666 -17.573411,8.071998 -13.201078,8.576497 -20.684492,22.534325 -7.399331,13.873745 -7.399331,30.101823 0,13.369245 4.792748,25.056823 4.876832,11.68758 14.041912,20.60041 8.828747,8.74466 20.432243,13.28516 11.603496,4.62458 24.804574,4.62458 10.846747,0 21.273076,-3.69966 10.510411,-3.61558 19.255081,-10.42633 l 7.56749,9.33325 q -10.51041,8.15608 -22.95474,12.44433 -12.360244,4.37233 -25.140907,4.37233 -15.555411,0 -29.345073,-5.5495 Q 32.792489,140.16687 22.029826,129.65646 11.267163,119.14605 5.6335815,105.35639 1.3411045e-7,91.482641 1.3411045e-7,75.590897 1.3411045e-7,60.287736 5.7176648,46.41399 11.435329,32.540245 22.029826,22.029832 32.876572,11.351253 47.08665,5.7176714 61.296729,6.7055225e-6 77.188473,6.7055225e-6 q 17.82566,0 33.044737,7.3152473944775 15.30316,7.3152479 25.64541,20.7685759 6.30625,8.240164 9.5855,17.909744 3.36333,9.66958 3.36333,20.011826 0,22.113909 -13.36925,34.89457 -13.36924,12.78066 -36.912568,13.28516 z" /></g>
</svg>